{"title":"Tron legacy Hindi Scam_TheAaax9","uid":6113666,"size":748382654,"categoryP":"video","categoryS":"movies","magnet":"?xt=urn:btih:149a7c94467cdc32f2573989bf5d5f9a7070ee81&amp;dn=Tron+legacy+Hindi+Scam_TheAaax9&amp;tr=udp%3A%2F%2Ftracker.openbittorrent.com%3A80&amp;tr=udp%3A%2F%2Fopen.demonii.com%3A1337&amp;tr=udp%3A%2F%2Ftracker.coppersurfer.tk%3A6969&amp;tr=udp%3A%2F%2Fexodus.desync.com%3A6969","seeders":0,"leechers":0,"uploader":"TheAaax9","files":-1,"time":1295460621,"description":"                                 $$TheAaax9$$\n                                --------------\n\n++++++++++++++++++++++++++++++++++++++++++++++++++++++++++++++++++++++++++\n\nPresent by TheAaax9\n--------------------\n\nSample Include In Torrent\n\n========================================================================== \n\nGeneral\nComplete name                    : Tron legacy Hindi Scam_TheAaax9.avi\nFormat                           : AVI\nFormat/Info                      : Audio Video Interleave\nFile size                        : 700 MiB\nDuration                         : 1h 57mn\nOverall bit rate                 : 829 Kbps\n\nVideo\nID                               : 0\nFormat                           : MPEG-4 Visual\nFormat profile                   : AdvancedSimple@L5\nFormat settings, BVOP            : Yes\nFormat settings, QPel            : No\nFormat settings, GMC             : No warppoints\nFormat settings, Matrix          : Custom\nCodec ID                         : XVID\nCodec ID/Hint                    : XviD\nDuration                         : 1h 57mn\nBit rate                         : 708 Kbps\nWidth                            : 608 pixels\nHeight                           : 272 pixels\nDisplay aspect ratio             : 2.25:1\nFrame rate                       : 25.000 fps\nResolution                       : 24 bits\nColorimetry                      : 4:2:0\nScan type                        : Progressive\nBits/(Pixel*Frame)               : 0.171\nStream size                      : 598 MiB (85%)\n\n==========================================================================\n\nAudio\nID                               : 1\nFormat                           : MPEG Audio\nFormat version                   : Version 1\nFormat profile                   : Layer 3\nCodec ID                         : 55\nCodec ID/Hint                    : MP3\nDuration                         : 1h 57mn\nBit rate mode                    : Variable\nBit rate                         : 108 Kbps\nNominal bit rate                 : 128 Kbps\nChannel(s)                       : 2 channels\nSampling rate                    : 48.0 KHz\nResolution                       : 16 bits\nStream size                      : 91.3 MiB (13%)\nAlignment                        : Aligned on interleaves\nInterleave, duration             : 24 ms (0.60 video frame)\nInterleave, preload duration     : 545 ms\nWriting library                  : LAME3.98r\n\n==========================================================================\n\nPresent by TheAaax9\n--------------------\n\nSample Include In Torrent\n\n++++++++++++++++++++++++++++++++++++++++++++++++++++++++++++++++++++++++++\n\n                                 $$TheAaax9$$\n                                --------------","torrent":{"xt":"urn:btih:149a7c94467cdc32f2573989bf5d5f9a7070ee81","amp;dn":"Tron+legacy+Hindi+Scam_TheAaax9","amp;tr":["udp%3A%2F%2Ftracker.openbittorrent.com%3A80","udp%3A%2F%2Fopen.demonii.com%3A1337","udp%3A%2F%2Ftracker.coppersurfer.tk%3A6969","udp%3A%2F%2Fexodus.desync.com%3A6969"],"infoHash":"149a7c94467cdc32f2573989bf5d5f9a7070ee81","infoHashBuffer":{"type":"Buffer","data":[20,154,124,148,70,124,220,50,242,87,57,137,191,93,95,154,112,112,238,129]},"announce":[],"urlList":[]}}